<svg 
  xmlns="http://www.w3.org/2000/svg"
  viewBox="0 0 222.12 309.8875"
  x="0px"
  y="0px">
  <title>Avocet</title>
  <g data-name="Layer 2">
    <g data-name="Layer 23">
      <path d="M146.43,9a2.66,2.66,0,0,0-2.84,2.42,2.87,2.87,0,0,0,5.67,0A2.66,2.66,0,0,0,146.43,9Zm0,4a1.84,1.84,0,0,1-2-1.59,2.07,2.07,0,0,1,4,0A1.85,1.85,0,0,1,146.43,13ZM222,36.84a.5.5,0,0,0-.54-.22c-.07,0-7.69,1.57-42.7-12L161.32,17c0-.09.08-.18.11-.27.36-1.07-.32-2-.92-2.74a3.35,3.35,0,0,1-.95-1.88,6.22,6.22,0,0,1,.13-1.21,1.94,1.94,0,0,0-.28-1.53A21.46,21.46,0,0,0,141.8,0c-11.92,0-21.62,10-21.62,22.32a24,24,0,0,0,.15,2.64c0,.15,3.58,14.44,7,23.29,1.16,3,2.05,5.23,2.73,6.92,1.28,3.18,1.81,4.49,1.81,5.3a2,2,0,0,1-1.89,2C128.51,62,109.14,56.3,84.47,67c-15.34,6.67-20.78,8.24-23.71,9.09a14.85,14.85,0,0,0-4.75,2c-1.44,0-11.92-.1-20.72,2.87-15.63-.09-17.53,1.86-17.63,2.69-.07.53.27,2.13,5.87,3.57-5.85.67-18.06,2.5-23.33,6.49a.51.51,0,0,0-.16.61.52.52,0,0,0,.46.29H.6c10.33-2,26-4.64,30-4-7,1.59-14.54,3.71-14.45,5.4a.85.85,0,0,0,.41.66c1.17.82,6,1.22,11.44,1.22,2.08,0,4.24-.06,6.31-.18a.69.69,0,0,0,.13.11L85.4,123.6a6.44,6.44,0,0,0,1.28,3.59V133a.5.5,0,0,0,.41.49l.1,0L81.9,167.76a4.64,4.64,0,0,0,.85,5.81c.36,1.2,3.15,10.85,6,33.34,1.11,8.78,1.92,14.72,2.48,18.74H82.15a.5.5,0,0,0-.5.5.51.51,0,0,0,.5.5h9.13l.06,0c.2,1.45.37,2.67.51,3.71h1c-.16-1.19-.35-2.6-.59-4.33-.56-4-1.4-10.08-2.55-19.23-3-24.11-6-33.55-6.06-33.65a.54.54,0,0,0-.15-.22,3.65,3.65,0,0,1-.71-4.71.4.4,0,0,0,.07-.19l5.31-34.29,2.16.38c-.6,3.9-4.26,28.63-2.62,32.8a5.93,5.93,0,0,0,.91,1.45,3,3,0,0,1,.88,1.8,3.63,3.63,0,0,1-1.55,3,.52.52,0,0,0-.21.45c0,.38,2.84,35.27,7.54,56.77h1c-4.49-20.4-7.26-53.24-7.54-56.58a4.66,4.66,0,0,0,1.74-3.61,3.87,3.87,0,0,0-1.09-2.42,4.92,4.92,0,0,1-.77-1.19c-1.3-3.3,1.14-22.25,2.67-32.27l.24,0h.08a.5.5,0,0,0,.47-.32l1.76-4.54a6.51,6.51,0,0,0,4.48-5.74l9.7-1.22v5a.5.5,0,0,0,.46.5h0c-1.59,4.6-11,32.22-10.06,36.66a6,6,0,0,0,1.19,2.93c.74,1.39,14.65,27.36,28.54,57.65,0,.71-.15,2.72-.08,5.1h1c-.06-2,0-3.91.08-5.16a.51.51,0,0,0,0-.24c-14.25-31.06-28.52-57.61-28.66-57.88l-.08-.1a5.2,5.2,0,0,1-1-2.6c-.76-3.59,6.93-27.05,10.13-36.27l2.35.2c-1.42,5.22-8.57,32.22-5.09,36.49.32.4-.38,1.28-.8,1.81l-.09.12a.51.51,0,0,0-.1.24c0,.1-.28,2.41,2,6.86.36.72,1.2,2.43,2.37,4.82,6.13,12.56,20.47,41.92,25,46.82.22.37,1.55,2.51,3.25,4.89h1.24c-2-2.77-3.64-5.4-3.67-5.45a.16.16,0,0,0-.06-.08c-4.37-4.69-19.25-35.15-24.86-46.62-1.17-2.4-2-4.11-2.37-4.83-1.83-3.57-1.92-5.65-1.91-6.16.61-.76,1.61-2,.79-3-2.76-3.39,2.81-26.6,5.33-35.78h0a.48.48,0,0,0,.46-.23l4.25-6.77a36.5,36.5,0,0,0,25.49-15.58c13.23-20.21,14-39.12,14-39.27.54-4.83-1.92-12.44-7.3-22.62-3.85-7.29-3.57-10.75-3.57-10.84,0-4.65,2.95-7.74,7.7-8l4.95-.39a1.88,1.88,0,0,0,1.22-.56c1.22-.44,3.33-.12,30,8.59,14.5,4.73,22.47,5.92,26.81,5.92,3.87,0,4.87-.94,5-1.16A.48.48,0,0,0,222,36.84Zm-203.39,47c.21-.92,6.37-1.67,14-1.79a23.94,23.94,0,0,0-4.09,2.24,2.29,2.29,0,0,0-1.09,2.81l-.52-.1h-.07C22.56,86.13,18.53,84.79,18.65,83.81ZM3.17,93.12C10.81,89.37,25.31,88.07,26.7,88l1.42.25a9.62,9.62,0,0,0,1.44,1.38C23.69,89.38,9.44,91.94,3.17,93.12Zm14.06,2.82c.91-1,8.26-3.14,14.91-4.62A70.29,70.29,0,0,0,42,95.91C34.66,97.38,19,97,17.23,95.94Zm142.52-73a1,1,0,0,1-.87.74l-4.95.38c-5.24.34-8.63,3.89-8.62,9,0,.15-.34,3.75,3.68,11.35,5.21,9.87,7.69,17.49,7.18,22.09,0,.19-.77,18.83-13.84,38.81a35.41,35.41,0,0,1-25,15.15h0l-4.65.56a.5.5,0,1,0,.12,1l3.61-.43-3.65,5.82-3.7-.31v-5.11a.48.48,0,0,0-.17-.37.52.52,0,0,0-.39-.13L97.8,122.79a.49.49,0,0,0-.43.49,5.51,5.51,0,0,1-4,5.29.51.51,0,0,0-.33.31l-1.71,4.38L91,133.2h0l-3.14-.55h0l-.16,0V127a.51.51,0,0,0-.11-.31,5.47,5.47,0,0,1-1.2-3.43s0,0,0-.07,0-.07,0-.1a.41.41,0,0,0,0-.09l-.05-.07-.09-.07-.05,0L36.22,97.62a42.12,42.12,0,0,0,7.38-1.07c14.45,5.47,34.45,10.34,42.18,10.34a12.64,12.64,0,0,0,1.46-.07.5.5,0,0,0,.44-.56.49.49,0,0,0-.56-.43c-4.44.54-18.17-2.23-31.94-6.45-10.73-3.28-19-6.63-23.34-9.4h0c-1.86-1.18-3-2.26-3.39-3.18-.17-.44-.25-1,.7-1.71,7.63-5.34,21.48-5.9,25.74-6a1.44,1.44,0,0,0-.24,1.32c1.32,4.09,23.72,5.58,55.74,3.7a.49.49,0,0,0,.47-.53.5.5,0,0,0-.53-.47c-38.44,2.25-54-.65-54.73-3-.12-.37.4-.79.77-1a.42.42,0,0,0,.17-.11A14.18,14.18,0,0,1,61,77.08C64,76.23,69.47,74.64,84.87,68,110,57,129.53,63.33,129.73,63.4a.41.41,0,0,0,.16,0,3,3,0,0,0,3-3c0-1-.48-2.18-1.88-5.67-.68-1.69-1.57-3.92-2.72-6.91-3.39-8.79-6.91-23-6.93-23.1a20.45,20.45,0,0,1-.14-2.47C121.18,10.56,130.43,1,141.8,1a20.45,20.45,0,0,1,16.78,8.94,1,1,0,0,1,.14.76,6.87,6.87,0,0,0-.16,1.42,4.19,4.19,0,0,0,1.15,2.49c.6.78.95,1.29.77,1.81a4.2,4.2,0,0,1-.26.65h0A4.37,4.37,0,0,1,159,18.62a1.92,1.92,0,0,0-.69,1.59,2.09,2.09,0,0,0,.91,1.59l.09.05A1,1,0,0,1,159.75,22.9Zm30.71,8.81c-23-7.53-27.9-8.86-29.72-8.78A1.91,1.91,0,0,0,159.9,21l-.09-.06a1,1,0,0,1-.46-.8.91.91,0,0,1,.33-.77,5.44,5.44,0,0,0,1.21-1.47l17.53,7.67c23.21,9,34.49,11.36,39.58,11.93C214.23,37.72,206.36,36.9,190.46,31.71ZM99.9,234.41H76.78a.5.5,0,0,1-.5-.5.5.5,0,0,1,.5-.5H99.9a.5.5,0,0,1,.5.5A.5.5,0,0,1,99.9,234.41Zm12.43-1h6.4a.5.5,0,0,1,.5.5.5.5,0,0,1-.5.5h-6.4a.5.5,0,0,1-.5-.5A.5.5,0,0,1,112.33,233.41Zm43.82.5a.5.5,0,0,1-.5.5H133.36a.5.5,0,0,1-.5-.5.51.51,0,0,1,.5-.5h22.29A.51.51,0,0,1,156.15,233.91Zm-43.82,4.86H94.42a.5.5,0,0,1-.5-.5.5.5,0,0,1,.5-.5h17.91a.5.5,0,0,1,.5.5A.5.5,0,0,1,112.33,238.77Zm28.19-.5a.51.51,0,0,1-.5.5h-15.3a.5.5,0,0,1-.5-.5.5.5,0,0,1,.5-.5H140A.5.5,0,0,1,140.52,238.27Zm-11.31,9a.51.51,0,0,1-.5.5H112.33a.5.5,0,0,1-.5-.5.5.5,0,0,1,.5-.5h16.38A.5.5,0,0,1,129.21,247.25Zm-16.38-21.1a.5.5,0,0,1-.5.5H105.1a.5.5,0,0,1-.5-.5.5.5,0,0,1,.5-.5h7.23A.5.5,0,0,1,112.83,226.15Zm29.18.5a.5.5,0,0,1-.5-.5.5.5,0,0,1,.5-.5h8a.5.5,0,0,1,.5.5.5.5,0,0,1-.5.5Zm-62.63.2a.67.67,0,1,1,.67-.67A.67.67,0,0,1,79.38,226.85Zm35.49,0a.67.67,0,1,1,.66-.67A.67.67,0,0,1,114.87,226.85Zm44.5,7.06a.66.66,0,0,1-.66.67.67.67,0,1,1,0-1.33A.66.66,0,0,1,159.37,233.91Zm-40.18,4.34a.67.67,0,1,1,.66.66A.66.66,0,0,1,119.19,238.25Zm-45.62-4.34a.67.67,0,0,1-.67.67.67.67,0,1,1,.67-.67Zm34.33,13.34a.66.66,0,0,1-.66.66.67.67,0,1,1,.66-.66Z"/>
    </g>
  </g>
</svg>